<?xml version="1.0" encoding="UTF-8"?> <svg xmlns="http://www.w3.org/2000/svg" width="1118" height="583" viewBox="0 0 1118 583" fill="none"> <path d="M553.5 291.8C553.5 402.7 551.1 504.1 547.2 582.8C544.1 504.2 541.7 402.7 541.7 291.8C541.7 180.1 544.1 78.7 547.2 0C551.2 78.7 553.5 180.1 553.5 291.8Z" fill="white"></path> <path d="M621.355 289V123.182H683.537C696.276 123.182 706.963 125.557 715.599 130.307C724.29 135.057 730.848 141.588 735.274 149.901C739.754 158.159 741.994 167.551 741.994 178.077C741.994 188.71 739.754 198.156 735.274 206.415C730.794 214.673 724.182 221.178 715.438 225.928C706.693 230.624 695.925 232.972 683.132 232.972H641.92V208.277H679.084C686.533 208.277 692.632 206.982 697.382 204.391C702.132 201.8 705.641 198.237 707.908 193.703C710.229 189.169 711.389 183.96 711.389 178.077C711.389 172.193 710.229 167.011 707.908 162.531C705.641 158.051 702.105 154.57 697.301 152.087C692.551 149.55 686.425 148.281 678.922 148.281H651.393V289H621.355Z" fill="white"></path> <path d="M802.982 289L756.184 123.182H788.489L818.365 245.036H819.904L851.804 123.182H881.195L913.177 245.116H914.634L944.51 123.182H976.816L930.017 289H900.384L867.188 172.652H865.892L832.615 289H802.982Z" fill="white"></path> <path d="M1086.65 168.766C1085.89 161.695 1082.71 156.189 1077.09 152.249C1071.53 148.308 1064.3 146.338 1055.39 146.338C1049.13 146.338 1043.76 147.283 1039.28 149.172C1034.8 151.061 1031.37 153.625 1029 156.864C1026.62 160.102 1025.41 163.8 1025.35 167.956C1025.35 171.411 1026.14 174.406 1027.7 176.943C1029.32 179.48 1031.51 181.639 1034.26 183.42C1037.01 185.148 1040.06 186.605 1043.41 187.793C1046.76 188.98 1050.13 189.979 1053.53 190.788L1069.08 194.675C1075.34 196.132 1081.36 198.102 1087.13 200.585C1092.96 203.068 1098.17 206.199 1102.76 209.977C1107.4 213.756 1111.07 218.317 1113.77 223.661C1116.47 229.004 1117.82 235.266 1117.82 242.445C1117.82 252.161 1115.33 260.716 1110.37 268.111C1105.4 275.452 1098.22 281.2 1088.83 285.357C1079.49 289.459 1068.19 291.51 1054.91 291.51C1042.01 291.51 1030.81 289.513 1021.31 285.518C1011.86 281.524 1004.47 275.695 999.122 268.03C993.832 260.365 990.971 251.027 990.539 240.016H1020.09C1020.52 245.791 1022.3 250.595 1025.44 254.428C1028.57 258.26 1032.64 261.121 1037.66 263.01C1042.74 264.899 1048.4 265.844 1054.66 265.844C1061.2 265.844 1066.92 264.872 1071.83 262.929C1076.8 260.932 1080.68 258.179 1083.49 254.67C1086.3 251.108 1087.73 246.952 1087.78 242.202C1087.73 237.884 1086.46 234.321 1083.97 231.514C1081.49 228.653 1078.01 226.278 1073.53 224.389C1069.1 222.446 1063.92 220.719 1057.98 219.207L1039.12 214.349C1025.46 210.841 1014.67 205.524 1006.73 198.399C998.852 191.22 994.912 181.693 994.912 169.818C994.912 160.048 997.556 151.493 1002.85 144.152C1008.19 136.811 1015.45 131.116 1024.63 127.068C1033.8 122.966 1044.19 120.915 1055.8 120.915C1067.57 120.915 1077.87 122.966 1086.73 127.068C1095.63 131.116 1102.62 136.757 1107.7 143.99C1112.77 151.169 1115.39 159.428 1115.55 168.766H1086.65Z" fill="white"></path> <path d="M720.039 343.273L701.325 456H685.693L642.154 373.326H641.163L627.347 456H610.339L629.054 343.273H644.796L688.39 426.057H689.435L703.196 343.273H720.039Z" fill="white"></path> <path d="M760.812 457.706C752.776 457.706 746.06 455.872 740.666 452.202C735.272 448.496 731.474 443.322 729.272 436.68C727.107 430.002 726.741 422.241 728.172 413.397C729.566 404.737 732.373 397.178 736.593 390.719C740.85 384.261 746.171 379.252 752.555 375.693C758.977 372.133 766.114 370.354 773.967 370.354C782.003 370.354 788.7 372.207 794.058 375.913C799.452 379.619 803.25 384.812 805.451 391.49C807.653 398.169 808.038 405.948 806.607 414.828C805.213 423.415 802.369 430.937 798.076 437.396C793.819 443.817 788.498 448.808 782.113 452.367C775.728 455.927 768.628 457.706 760.812 457.706ZM761.748 443.891C767.032 443.891 771.637 442.496 775.563 439.707C779.526 436.919 782.756 433.212 785.251 428.589C787.746 423.965 789.452 418.901 790.37 413.397C791.214 408.076 791.195 403.214 790.315 398.811C789.471 394.371 787.636 390.811 784.81 388.132C781.985 385.454 778.059 384.114 773.031 384.114C767.747 384.114 763.105 385.527 759.106 388.353C755.142 391.141 751.913 394.866 749.418 399.526C746.959 404.187 745.29 409.269 744.409 414.773C743.565 420.057 743.565 424.919 744.409 429.359C745.253 433.763 747.088 437.286 749.913 439.928C752.739 442.57 756.684 443.891 761.748 443.891Z" fill="white"></path> <path d="M818.208 456L832.298 371.455H848.206L845.949 384.885H846.83C849.105 380.335 852.426 376.757 856.792 374.152C861.159 371.51 865.819 370.189 870.773 370.189C871.837 370.189 873.048 370.225 874.406 370.299C875.764 370.335 876.865 370.427 877.709 370.574L875.067 386.316C874.443 386.133 873.305 385.931 871.654 385.711C870.003 385.454 868.296 385.325 866.535 385.325C862.682 385.325 859.104 386.151 855.802 387.802C852.499 389.417 849.729 391.674 847.49 394.572C845.252 397.435 843.802 400.701 843.142 404.37L834.665 456H818.208Z" fill="white"></path> <path d="M906.51 457.651C899.648 457.651 893.832 455.908 889.061 452.422C884.327 448.9 880.97 443.891 878.988 437.396C877.044 430.864 876.823 423.029 878.328 413.892C879.869 404.755 882.713 396.939 886.859 390.444C891.006 383.949 896.033 378.977 901.941 375.528C907.849 372.078 914.216 370.354 921.041 370.354C926.288 370.354 930.361 371.234 933.26 372.996C936.196 374.72 938.361 376.739 939.755 379.05C941.15 381.362 942.196 383.399 942.893 385.16H943.829L950.819 343.273H967.277L948.562 456H932.49L934.747 442.845H933.37C932.086 444.643 930.306 446.698 928.031 449.01C925.793 451.321 922.931 453.34 919.445 455.064C915.959 456.789 911.647 457.651 906.51 457.651ZM912.069 443.615C916.803 443.615 921.041 442.368 924.784 439.873C928.563 437.341 931.701 433.836 934.196 429.359C936.728 424.883 938.489 419.672 939.48 413.727C940.471 407.856 940.453 402.719 939.425 398.315C938.398 393.912 936.416 390.481 933.481 388.022C930.545 385.564 926.674 384.335 921.867 384.335C916.913 384.335 912.601 385.619 908.932 388.188C905.262 390.756 902.253 394.261 899.905 398.701C897.593 403.141 895.978 408.15 895.061 413.727C894.107 419.378 894.07 424.461 894.951 428.974C895.831 433.488 897.684 437.065 900.51 439.707C903.336 442.313 907.189 443.615 912.069 443.615Z" fill="white"></path> <path d="M971.997 456L986.088 371.455H1002.55L988.454 456H971.997ZM997.757 358.244C994.894 358.244 992.473 357.29 990.491 355.382C988.546 353.437 987.647 351.125 987.794 348.447C987.941 345.731 989.078 343.419 991.206 341.511C993.335 339.567 995.812 338.594 998.637 338.594C1001.5 338.594 1003.9 339.567 1005.85 341.511C1007.79 343.419 1008.71 345.731 1008.6 348.447C1008.45 351.125 1007.32 353.437 1005.19 355.382C1003.1 357.29 1000.62 358.244 997.757 358.244Z" fill="white"></path> <path d="M1045.99 457.706C1037.77 457.706 1031.03 455.853 1025.79 452.147C1020.54 448.404 1016.89 443.248 1014.83 436.68C1012.78 430.112 1012.45 422.589 1013.84 414.113C1015.24 405.526 1018.08 397.948 1022.37 391.38C1026.7 384.775 1032.12 379.619 1038.61 375.913C1045.14 372.207 1052.39 370.354 1060.35 370.354C1066.78 370.354 1072.3 371.546 1076.92 373.931C1081.55 376.28 1085.05 379.583 1087.43 383.839C1089.82 388.096 1090.85 393.068 1090.52 398.756H1074.5C1074.24 394.793 1072.78 391.38 1070.1 388.518C1067.42 385.656 1063.47 384.224 1058.26 384.224C1053.68 384.224 1049.46 385.435 1045.6 387.857C1041.75 390.242 1038.5 393.655 1035.86 398.095C1033.22 402.499 1031.42 407.709 1030.47 413.727C1029.44 419.892 1029.49 425.213 1030.63 429.69C1031.77 434.166 1033.86 437.634 1036.91 440.093C1039.95 442.551 1043.79 443.781 1048.41 443.781C1051.57 443.781 1054.5 443.212 1057.22 442.074C1059.97 440.9 1062.39 439.23 1064.48 437.065C1066.61 434.9 1068.26 432.295 1069.44 429.249H1085.51C1083.93 434.717 1081.29 439.597 1077.58 443.891C1073.91 448.184 1069.4 451.56 1064.04 454.018C1058.68 456.477 1052.67 457.706 1045.99 457.706Z" fill="white"></path> <path d="M373.521 273.058C372.671 273.058 371.821 272.845 370.971 272.42C368.208 271.039 367.145 267.638 368.633 264.875L425.059 156.485C426.441 153.722 429.841 152.66 432.604 154.147C435.367 155.529 436.43 158.929 434.942 161.692L378.515 270.082C377.453 271.995 375.54 273.058 373.521 273.058Z" fill="white"></path> <path d="M486.374 273.058C484.355 273.058 482.442 271.995 481.38 270.083L424.953 161.692C423.572 158.93 424.634 155.529 427.291 154.148C430.054 152.766 433.454 153.829 434.836 156.485L491.262 264.876C492.644 267.638 491.581 271.039 488.925 272.42C488.181 272.845 487.331 273.058 486.374 273.058Z" fill="white"></path> <path d="M277.67 408.439C274.588 408.439 272.038 405.889 272.038 402.807V169.556C272.038 168.6 272.038 167.218 271.932 165.624C271.613 154.466 271.188 133.532 277.564 120.036C280.858 113.129 286.065 108.029 292.441 105.478C299.029 102.928 306.361 103.247 313.269 106.541C325.17 112.173 330.271 126.519 324.533 138.42C319.751 148.515 307.637 152.766 297.541 147.984C294.779 146.709 293.61 143.308 294.885 140.546C296.16 137.783 299.561 136.614 302.323 137.889C306.787 140.014 312.206 138.102 314.438 133.638C317.413 127.262 314.756 119.718 308.38 116.636C299.986 112.598 291.803 115.892 287.553 124.818C282.239 135.976 282.771 155.741 282.983 165.305C282.983 167.006 283.089 168.387 283.089 169.45V402.701C283.302 405.995 280.752 408.439 277.67 408.439Z" fill="white"></path> <path d="M430.479 164.668C419.215 164.668 407.951 160.736 398.812 152.766C382.022 137.995 372.033 117.061 369.27 90.2824H246.109C243.028 90.2824 240.477 87.7321 240.477 84.6504C240.477 81.5687 243.028 79.0183 246.109 79.0183H379.684L380.003 84.2253C381.703 110.366 390.523 130.557 406.144 144.265C421.446 157.654 444.931 156.167 458.32 140.758C463.315 135.02 465.759 127.688 465.334 120.143C464.803 112.598 461.402 105.585 455.664 100.59C451.307 96.7646 445.781 94.8518 439.937 95.2769C434.198 95.7019 428.885 98.2523 425.059 102.609C419.215 109.304 419.852 119.612 426.547 125.456C428.885 127.581 431.967 128.538 435.155 128.325C438.343 128.113 441.212 126.731 443.231 124.287C446.312 120.78 445.887 115.573 442.487 112.492C440.149 110.473 439.937 106.966 441.956 104.628C443.975 102.29 447.481 102.078 449.819 104.097C457.895 111.217 458.745 123.543 451.626 131.619C447.588 136.295 441.956 139.058 435.792 139.483C429.629 139.908 423.678 137.889 419.109 133.851C407.738 123.862 406.569 106.541 416.558 95.1706C428.46 81.5687 449.288 80.1872 462.89 92.0889C479.361 106.435 481.061 131.619 466.609 147.984C457.258 159.142 443.975 164.668 430.479 164.668Z" fill="white"></path> <path d="M296.054 409.608H246.109C243.028 409.608 240.477 407.058 240.477 403.976C240.477 400.895 243.028 398.344 246.109 398.344H296.054C299.136 398.344 301.686 400.895 301.686 403.976C301.686 407.058 299.136 409.608 296.054 409.608Z" fill="white"></path> <path d="M277.67 175.188C274.588 175.188 272.038 172.638 272.038 169.556L272.038 84.7565C272.038 81.6748 274.588 79.1245 277.67 79.1245C280.752 79.1245 283.302 81.6748 283.302 84.7565V169.662C283.302 172.744 280.752 175.188 277.67 175.188Z" fill="white"></path> <path d="M429.948 329.485C395.73 329.485 367.889 301.643 367.889 267.426V261.794H491.9V267.426C492.006 301.643 464.165 329.485 429.948 329.485ZM379.472 273.058C382.235 298.455 403.913 318.327 430.054 318.327C456.195 318.327 477.767 298.455 480.636 273.058H379.472Z" fill="white"></path> <path d="M118.485 273.058C116.466 273.058 114.554 271.995 113.491 270.083L57.0642 161.692C55.6828 158.93 56.7455 155.529 59.4021 154.148C62.165 152.766 65.5654 153.829 66.9469 156.485L123.374 264.876C124.755 267.638 123.692 271.039 121.036 272.42C120.186 272.845 119.335 273.058 118.485 273.058Z" fill="white"></path> <path d="M5.63216 273.058C4.78204 273.058 3.93192 272.845 3.0818 272.42C0.318919 271.039 -0.743728 267.638 0.74398 264.875L57.1706 156.485C58.5521 153.722 61.9525 152.66 64.7154 154.147C67.4783 155.529 68.5409 158.929 67.0532 161.692L10.6266 270.082C9.56396 271.995 7.65119 273.058 5.63216 273.058Z" fill="white"></path> <path d="M214.336 408.439C211.255 408.439 208.704 405.889 208.704 402.807V169.556C208.704 168.493 208.704 167.112 208.81 165.412C209.023 155.848 209.554 135.976 204.241 124.925C199.99 115.999 191.808 112.704 183.413 116.742C177.037 119.718 174.381 127.369 177.356 133.745C179.481 138.208 184.901 140.227 189.47 137.995C192.233 136.72 195.634 137.889 196.909 140.652C198.184 143.415 197.015 146.815 194.252 148.09C184.157 152.872 172.043 148.622 167.261 138.527C161.629 126.625 166.623 112.386 178.525 106.647C185.432 103.353 192.764 103.034 199.353 105.585C205.729 108.135 210.936 113.236 214.23 120.143C220.606 133.638 220.181 154.466 219.862 165.73C219.862 167.324 219.756 168.6 219.756 169.662V402.914C219.968 405.995 217.418 408.439 214.336 408.439Z" fill="white"></path> <path d="M61.5273 164.668C48.138 164.668 34.7486 159.142 25.291 148.197C10.9453 131.726 12.5392 106.647 29.0103 92.3014C42.6122 80.3997 63.4401 81.7812 75.3418 95.3831C85.3307 106.753 84.1617 124.075 72.7914 134.063C68.1157 138.102 62.2712 140.121 56.1078 139.696C49.9445 139.27 44.3124 136.508 40.2744 131.832C33.1546 123.756 34.0047 111.323 42.0809 104.309C44.4187 102.29 47.9254 102.503 49.9445 104.841C51.9635 107.178 51.751 110.685 49.4131 112.704C45.9064 115.786 45.5876 120.993 48.6693 124.5C50.7946 126.837 53.6637 128.325 56.7454 128.538C59.9334 128.75 62.9088 127.688 65.3529 125.669C72.0475 119.824 72.7914 109.516 66.8406 102.822C63.015 98.4648 57.8081 95.8081 51.9635 95.4893C46.2252 95.0643 40.5931 96.977 36.2363 100.803C30.498 105.797 27.0975 112.704 26.5662 120.355C26.0349 127.9 28.5852 135.232 33.5797 140.971C46.969 156.273 70.4536 157.867 85.7557 144.477C101.377 130.769 110.197 110.579 111.897 84.4378L112.216 79.2308H245.791C248.872 79.2308 251.423 81.7812 251.423 84.8629C251.423 87.9445 248.872 90.4949 245.791 90.4949H122.736C119.973 117.167 110.09 138.208 93.1942 152.979C84.0555 160.736 72.7914 164.668 61.5273 164.668Z" fill="white"></path> <path d="M245.897 409.608H195.952C192.871 409.608 190.32 407.058 190.32 403.976C190.32 400.895 192.871 398.344 195.952 398.344H245.897C248.979 398.344 251.529 400.895 251.529 403.976C251.423 407.058 248.979 409.608 245.897 409.608Z" fill="white"></path> <path d="M214.336 175.188C211.254 175.188 208.704 172.638 208.704 169.556L208.704 84.7565C208.704 81.6748 211.254 79.1245 214.336 79.1245C217.418 79.1245 219.968 81.6748 219.968 84.7565V169.662C219.968 172.744 217.418 175.188 214.336 175.188Z" fill="white"></path> <path d="M430.266 38H62.0587C57.383 38 53.6637 41.7193 53.6637 46.3949C53.6637 51.0706 57.383 54.7898 62.0587 54.7898H430.266C434.942 54.7898 438.661 51.0706 438.661 46.3949C438.661 41.7193 434.942 38 430.266 38Z" fill="white"></path> <path d="M325.489 427.248H166.517C161.841 427.248 158.122 430.967 158.122 435.643C158.122 440.319 161.841 444.038 166.517 444.038H325.489C330.165 444.038 333.884 440.319 333.884 435.643C333.884 431.074 330.165 427.248 325.489 427.248Z" fill="white"></path> <path d="M62.0587 329.485C27.8414 329.485 0 301.643 0 267.426V261.794H124.011V267.426C124.011 301.643 96.276 329.485 62.0587 329.485ZM11.4766 273.058C14.2395 298.455 35.9175 318.327 62.0587 318.327C88.1998 318.327 109.772 298.455 112.641 273.058H11.4766Z" fill="white"></path> <path d="M246.109 407.908C241.434 407.908 237.714 404.189 237.714 399.513V89.2197C237.714 84.5441 241.434 80.8248 246.109 80.8248C250.785 80.8248 254.504 84.5441 254.504 89.2197V399.513C254.504 404.189 250.785 407.908 246.109 407.908Z" fill="white"></path> <path d="M246.109 545.096L53.6637 450.839V358.07C53.6637 353.394 57.383 349.675 62.0587 349.675C66.7343 349.675 70.4536 353.394 70.4536 358.07V440.425L246.216 526.5L421.978 440.425V358.07C421.978 353.394 425.697 349.675 430.373 349.675C435.048 349.675 438.768 353.394 438.768 358.07V450.839L246.109 545.096Z" fill="white"></path> </svg> 