<?xml version="1.0" encoding="UTF-8"?> <svg xmlns="http://www.w3.org/2000/svg" width="198" height="97" viewBox="0 0 198 97" fill="none"><g clip-path="url(#clip0_254_1327)"><path d="M98.026 48.5499C98.026 67.0015 97.6009 83.8726 96.9102 96.9667C96.3612 83.8892 95.9362 67.0015 95.9362 48.5499C95.9362 29.9652 96.3612 13.0942 96.9102 0C97.6186 13.0942 98.026 29.9652 98.026 48.5499Z" fill="white"></path><path d="M110.043 48.084V20.4951H121.056C123.312 20.4951 125.205 20.8903 126.734 21.6806C128.273 22.4709 129.435 23.5575 130.218 24.9406C131.012 26.3146 131.409 27.8773 131.409 29.6286C131.409 31.3977 131.012 32.9693 130.218 34.3435C129.425 35.7175 128.254 36.7998 126.705 37.5901C125.157 38.3714 123.25 38.7621 120.984 38.7621H113.685V34.6533H120.267C121.586 34.6533 122.667 34.4378 123.508 34.0067C124.349 33.5756 124.97 32.9828 125.372 32.2285C125.783 31.4741 125.988 30.6074 125.988 29.6286C125.988 28.6496 125.783 27.7874 125.372 27.042C124.97 26.2967 124.344 25.7175 123.493 25.3044C122.652 24.8822 121.567 24.6711 120.238 24.6711H115.363V48.084H110.043Z" fill="white"></path><path d="M142.21 48.084L133.922 20.4951H139.643L144.934 40.7693H145.207L150.856 20.4951H156.061L161.725 40.7826H161.983L167.275 20.4951H172.996L164.708 48.084H159.46L153.581 28.726H153.351L147.458 48.084H142.21Z" fill="white"></path><path d="M192.448 28.0797C192.313 26.9032 191.75 25.9871 190.755 25.3315C189.77 24.6758 188.49 24.3481 186.912 24.3481C185.803 24.3481 184.852 24.5053 184.059 24.8196C183.265 25.1339 182.658 25.5605 182.238 26.0994C181.816 26.6381 181.602 27.2534 181.591 27.9449C181.591 28.5197 181.731 29.018 182.008 29.4401C182.295 29.8623 182.682 30.2215 183.169 30.5178C183.656 30.8053 184.197 31.0477 184.79 31.2454C185.383 31.4429 185.98 31.6091 186.582 31.7437L189.336 32.3904C190.445 32.6328 191.511 32.9606 192.533 33.3737C193.565 33.7868 194.488 34.3078 195.301 34.9364C196.123 35.5651 196.773 36.324 197.251 37.2131C197.729 38.1021 197.968 39.144 197.968 40.3384C197.968 41.955 197.527 43.3784 196.649 44.6087C195.768 45.8301 194.497 46.7865 192.834 47.4781C191.18 48.1606 189.179 48.5019 186.827 48.5019C184.542 48.5019 182.558 48.1696 180.876 47.5049C179.202 46.8404 177.894 45.8706 176.946 44.5953C176.01 43.32 175.503 41.7663 175.426 39.9343H180.66C180.736 40.8951 181.051 41.6944 181.607 42.3322C182.162 42.9697 182.883 43.4457 183.772 43.76C184.671 44.0743 185.674 44.2316 186.782 44.2316C187.941 44.2316 188.954 44.0698 189.823 43.7466C190.703 43.4143 191.391 42.9563 191.888 42.3724C192.386 41.7798 192.639 41.0883 192.648 40.298C192.639 39.5796 192.414 38.9867 191.973 38.5197C191.534 38.0437 190.918 37.6485 190.124 37.3342C189.34 37.011 188.422 36.7236 187.37 36.4721L184.03 35.6638C181.611 35.0801 179.7 34.1955 178.294 33.01C176.899 31.8156 176.201 30.2305 176.201 28.2547C176.201 26.6291 176.669 25.2058 177.607 23.9844C178.552 22.763 179.838 21.8154 181.464 21.1419C183.088 20.4594 184.928 20.1182 186.984 20.1182C189.069 20.1182 190.893 20.4594 192.462 21.1419C194.038 21.8154 195.276 22.754 196.176 23.9574C197.074 25.1518 197.538 26.526 197.566 28.0797H192.448Z" fill="white"></path><path d="M127.52 57.1143L124.206 75.8699H121.438L113.727 62.1145H113.551L111.104 75.8699H108.092L111.407 57.1143H114.195L121.915 70.8879H122.1L124.537 57.1143H127.52Z" fill="white"></path><path d="M134.741 76.1533C133.318 76.1533 132.129 75.8482 131.173 75.2376C130.218 74.621 129.545 73.7601 129.155 72.655C128.772 71.5439 128.707 70.2526 128.961 68.7812C129.208 67.3403 129.705 66.0826 130.452 65.008C131.206 63.9335 132.148 63.1001 133.279 62.5079C134.416 61.9156 135.68 61.6196 137.071 61.6196C138.494 61.6196 139.68 61.9279 140.629 62.5445C141.584 63.1611 142.257 64.0252 142.647 65.1363C143.037 66.2475 143.105 67.5418 142.852 69.0192C142.605 70.448 142.101 71.6995 141.341 72.7741C140.587 73.8425 139.645 74.6729 138.514 75.265C137.383 75.8573 136.126 76.1533 134.741 76.1533ZM134.907 73.8548C135.843 73.8548 136.658 73.6227 137.354 73.1586C138.056 72.6948 138.628 72.078 139.069 71.3088C139.511 70.5395 139.813 69.6969 139.976 68.7812C140.126 67.8958 140.122 67.0869 139.966 66.3543C139.817 65.6156 139.492 65.0233 138.991 64.5775C138.491 64.132 137.796 63.909 136.905 63.909C135.969 63.909 135.147 64.1441 134.439 64.6143C133.737 65.0782 133.165 65.698 132.723 66.4733C132.288 67.2488 131.992 68.0943 131.836 69.0101C131.687 69.8893 131.687 70.6982 131.836 71.4369C131.986 72.1697 132.311 72.7558 132.811 73.1954C133.312 73.635 134.01 73.8548 134.907 73.8548Z" fill="white"></path><path d="M144.906 75.8696L147.402 61.8029H150.219L149.819 64.0374H149.975C150.378 63.2804 150.966 62.6851 151.74 62.2517C152.513 61.8121 153.338 61.5923 154.216 61.5923C154.404 61.5923 154.619 61.5983 154.859 61.6106C155.1 61.6166 155.295 61.6319 155.444 61.6563L154.976 64.2755C154.866 64.2451 154.664 64.2115 154.372 64.1748C154.079 64.1321 153.777 64.1106 153.465 64.1106C152.783 64.1106 152.149 64.2481 151.564 64.5228C150.979 64.7915 150.489 65.167 150.092 65.6491C149.696 66.1255 149.439 66.6689 149.322 67.2793L147.821 75.8696H144.906Z" fill="white"></path><path d="M160.545 76.1446C159.329 76.1446 158.299 75.8546 157.454 75.2746C156.616 74.6886 156.022 73.8552 155.671 72.7745C155.326 71.6877 155.287 70.3841 155.554 68.8639C155.827 67.3437 156.33 66.0432 157.064 64.9626C157.799 63.882 158.689 63.0547 159.736 62.4809C160.782 61.9069 161.909 61.62 163.118 61.62C164.047 61.62 164.769 61.7664 165.282 62.0596C165.802 62.3464 166.186 62.6824 166.432 63.0669C166.68 63.4515 166.865 63.7905 166.988 64.0834H167.154L168.392 57.1143H171.307L167.992 75.8699H165.146L165.546 73.6811H165.302C165.074 73.9803 164.759 74.3222 164.356 74.7069C163.96 75.0914 163.453 75.4273 162.836 75.7141C162.218 76.0011 161.454 76.1446 160.545 76.1446ZM161.529 73.8092C162.368 73.8092 163.118 73.6018 163.781 73.1866C164.45 72.7654 165.006 72.1822 165.448 71.4373C165.896 70.6926 166.208 69.8256 166.384 68.8364C166.559 67.8596 166.556 67.0049 166.374 66.2722C166.192 65.5396 165.841 64.9688 165.321 64.5596C164.801 64.1507 164.116 63.9462 163.264 63.9462C162.387 63.9462 161.623 64.1598 160.974 64.5872C160.324 65.0145 159.791 65.5977 159.375 66.3364C158.966 67.0751 158.679 67.9085 158.517 68.8364C158.348 69.7767 158.342 70.6224 158.498 71.3733C158.653 72.1243 158.982 72.7194 159.482 73.159C159.983 73.5926 160.665 73.8092 161.529 73.8092Z" fill="white"></path><path d="M172.143 75.8696L174.638 61.8029H177.554L175.057 75.8696H172.143ZM176.705 59.6048C176.198 59.6048 175.769 59.4461 175.418 59.1286C175.073 58.805 174.914 58.4204 174.94 57.9748C174.966 57.5229 175.168 57.1382 175.545 56.8208C175.922 56.4973 176.36 56.3354 176.861 56.3354C177.368 56.3354 177.793 56.4973 178.138 56.8208C178.482 57.1382 178.645 57.5229 178.625 57.9748C178.598 58.4204 178.398 58.805 178.021 59.1286C177.651 59.4461 177.212 59.6048 176.705 59.6048Z" fill="white"></path><path d="M185.247 76.1533C183.791 76.1533 182.597 75.845 181.669 75.2284C180.74 74.6056 180.093 73.7478 179.728 72.655C179.365 71.5622 179.307 70.3105 179.553 68.9003C179.801 67.4716 180.304 66.2107 181.064 65.118C181.831 64.019 182.79 63.1611 183.94 62.5445C185.096 61.9279 186.38 61.6196 187.79 61.6196C188.929 61.6196 189.906 61.818 190.725 62.2148C191.545 62.6056 192.164 63.1552 192.586 63.8633C193.009 64.5716 193.192 65.3988 193.133 66.3452H190.296C190.25 65.6858 189.991 65.118 189.517 64.6418C189.042 64.1656 188.343 63.9273 187.42 63.9273C186.609 63.9273 185.861 64.1288 185.178 64.5318C184.496 64.9286 183.92 65.4965 183.453 66.2352C182.985 66.9679 182.666 67.8348 182.498 68.8361C182.316 69.8618 182.325 70.7471 182.527 71.492C182.728 72.2367 183.099 72.8137 183.639 73.2229C184.177 73.6318 184.857 73.8365 185.675 73.8365C186.235 73.8365 186.754 73.7418 187.236 73.5525C187.723 73.3571 188.151 73.0793 188.521 72.7191C188.899 72.3588 189.191 71.9254 189.4 71.4186H192.246C191.966 72.3284 191.499 73.1403 190.841 73.8548C190.192 74.569 189.393 75.1307 188.444 75.5397C187.494 75.9488 186.43 76.1533 185.247 76.1533Z" fill="white"></path><path d="M66.1513 45.4317C66.0007 45.4317 65.8502 45.3963 65.6997 45.3255C65.2103 45.0958 65.0221 44.5299 65.2856 44.0702L75.2787 26.0362C75.5235 25.5765 76.1256 25.3998 76.615 25.6472C77.1043 25.8771 77.2926 26.4428 77.029 26.9025L67.0357 44.9365C66.8476 45.2548 66.5088 45.4317 66.1513 45.4317Z" fill="white"></path><path d="M86.1378 45.4317C85.7803 45.4317 85.4415 45.2548 85.2534 44.9367L75.2601 26.9025C75.0155 26.443 75.2036 25.8771 75.6741 25.6473C76.1635 25.4174 76.7656 25.5943 77.0104 26.0362L87.0035 44.0703C87.2483 44.5299 87.06 45.0957 86.5896 45.3255C86.4579 45.3962 86.3073 45.4317 86.1378 45.4317Z" fill="white"></path><path d="M49.1759 67.9563C48.63 67.9563 48.1784 67.532 48.1784 67.0192V28.2107C48.1784 28.0516 48.1784 27.8217 48.1596 27.5565C48.1032 25.7 48.0279 22.217 49.1571 19.9715C49.7405 18.8223 50.6626 17.9738 51.7918 17.5494C52.9586 17.1251 54.2571 17.1782 55.4805 17.7262C57.5882 18.6633 58.4916 21.0502 57.4754 23.0303C56.6285 24.7099 54.4831 25.4172 52.695 24.6215C52.2059 24.4094 51.9989 23.8435 52.2247 23.384C52.4505 22.9243 53.0528 22.7298 53.542 22.9419C54.3325 23.2955 55.2922 22.9774 55.6875 22.2346C56.2144 21.1738 55.7439 19.9186 54.6147 19.4058C53.1281 18.734 51.6788 19.2821 50.9262 20.7672C49.985 22.6236 50.0793 25.9122 50.1168 27.5034C50.1168 27.7864 50.1356 28.0162 50.1356 28.1931V67.0016C50.1733 67.5496 49.7217 67.9563 49.1759 67.9563Z" fill="white"></path><path d="M76.2386 27.3974C74.2437 27.3974 72.2488 26.7432 70.6303 25.4172C67.6568 22.9596 65.8877 19.4765 65.3984 15.0211H43.5863C43.0407 15.0211 42.5889 14.5968 42.5889 14.084C42.5889 13.5713 43.0407 13.147 43.5863 13.147H67.2427L67.2992 14.0133C67.6003 18.3626 69.1623 21.722 71.9288 24.0028C74.6388 26.2304 78.7981 25.983 81.1693 23.4193C82.0539 22.4646 82.4868 21.2447 82.4115 19.9893C82.3174 18.734 81.7151 17.5672 80.6989 16.7361C79.9273 16.0996 78.9486 15.7814 77.9136 15.8521C76.8972 15.9228 75.9563 16.3471 75.2787 17.072C74.2437 18.1859 74.3565 19.901 75.5422 20.8733C75.9563 21.2269 76.5021 21.3861 77.0667 21.3507C77.6313 21.3154 78.1394 21.0854 78.497 20.6788C79.0426 20.0953 78.9674 19.229 78.3652 18.7164C77.9512 18.3804 77.9136 17.7969 78.2712 17.4079C78.6288 17.0189 79.2497 16.9837 79.6637 17.3196C81.094 18.5042 81.2446 20.555 79.9838 21.8987C79.2686 22.6767 78.2712 23.1364 77.1795 23.2071C76.0881 23.2778 75.0341 22.9419 74.2249 22.2701C72.2111 20.6081 72.0041 17.7262 73.7732 15.8344C75.881 13.5713 79.5697 13.3415 81.9786 15.3217C84.8957 17.7086 85.1968 21.8987 82.6373 24.6215C80.9812 26.478 78.6288 27.3974 76.2386 27.3974Z" fill="white"></path><path d="M52.4317 68.151H43.5863C43.0407 68.151 42.5889 67.7267 42.5889 67.2139C42.5889 66.7013 43.0407 66.2769 43.5863 66.2769H52.4317C52.9775 66.2769 53.4291 66.7013 53.4291 67.2139C53.4291 67.7267 52.9775 68.151 52.4317 68.151Z" fill="white"></path><path d="M49.1759 29.1482C48.6301 29.1482 48.1785 28.7239 48.1785 28.2111V14.1021C48.1785 13.5894 48.6301 13.165 49.1759 13.165C49.7217 13.165 50.1733 13.5894 50.1733 14.1021V28.2287C50.1733 28.7415 49.7217 29.1482 49.1759 29.1482Z" fill="white"></path><path d="M76.1446 54.8201C70.0845 54.8201 65.1538 50.1877 65.1538 44.4947V43.5576H87.1164V44.4947C87.1352 50.1877 82.2045 54.8201 76.1446 54.8201ZM67.2052 45.4317C67.6945 49.6573 71.5337 52.9636 76.1633 52.9636C80.793 52.9636 84.6134 49.6573 85.1215 45.4317H67.2052Z" fill="white"></path><path d="M20.9839 45.4317C20.6263 45.4317 20.2877 45.2548 20.0995 44.9367L10.1062 26.9025C9.86151 26.443 10.0497 25.8771 10.5202 25.6473C11.0095 25.4174 11.6117 25.5943 11.8564 26.0362L21.8498 44.0703C22.0943 44.5299 21.9061 45.0957 21.4357 45.3255C21.2852 45.3962 21.1344 45.4317 20.9839 45.4317Z" fill="white"></path><path d="M0.99771 45.4317C0.847152 45.4317 0.696595 45.3963 0.546037 45.3255C0.0567249 45.0958 -0.131472 44.5299 0.132004 44.0702L10.1253 26.0362C10.3699 25.5765 10.9722 25.3998 11.4615 25.6472C11.9508 25.8771 12.139 26.4428 11.8755 26.9025L1.88224 44.9365C1.69404 45.2548 1.35528 45.4317 0.99771 45.4317Z" fill="white"></path><path d="M37.9594 67.9562C37.4138 67.9562 36.962 67.5319 36.962 67.0191V28.2106C36.962 28.0338 36.962 27.804 36.9807 27.5211C37.0185 25.9299 37.1125 22.6236 36.1716 20.7849C35.4187 19.2998 33.9697 18.7515 32.4829 19.4234C31.3537 19.9185 30.8833 21.1915 31.4102 22.2524C31.7865 22.9949 32.7464 23.3308 33.5556 22.9595C34.0449 22.7473 34.6473 22.9418 34.8731 23.4015C35.0989 23.8613 34.8918 24.427 34.4025 24.6391C32.6147 25.4347 30.4692 24.7276 29.6223 23.048C28.6249 21.0677 29.5093 18.6986 31.6172 17.7438C32.8405 17.1957 34.139 17.1426 35.3059 17.5671C36.4351 17.9913 37.3573 18.8401 37.9406 19.9892C39.0698 22.2346 38.9946 25.6999 38.9381 27.574C38.9381 27.8393 38.9193 28.0516 38.9193 28.2283V67.0369C38.9569 67.5495 38.5052 67.9562 37.9594 67.9562Z" fill="white"></path><path d="M10.8966 27.3977C8.52532 27.3977 6.15403 26.4783 4.47907 24.6573C1.93842 21.9168 2.2207 17.7441 5.13777 15.3573C7.54669 13.3771 11.2354 13.607 13.3432 15.8701C15.1122 17.7618 14.9052 20.6438 12.8915 22.3056C12.0634 22.9777 11.0283 23.3136 9.93679 23.2429C8.84526 23.172 7.8478 22.7124 7.13266 21.9344C5.87173 20.5908 6.02229 18.5221 7.4526 17.3551C7.86663 17.0192 8.48767 17.0547 8.84526 17.4437C9.20283 17.8325 9.16519 18.416 8.75115 18.7519C8.1301 19.2647 8.07364 20.131 8.61942 20.7145C8.99581 21.1034 9.50393 21.3509 10.0497 21.3864C10.6143 21.4217 11.1413 21.245 11.5741 20.909C12.7597 19.9365 12.8915 18.2215 11.8376 17.1077C11.1601 16.3828 10.2379 15.9408 9.20283 15.8877C8.18656 15.817 7.18911 16.1352 6.41751 16.7718C5.40124 17.6027 4.79901 18.7519 4.70491 20.0249C4.61082 21.2802 5.06248 22.5001 5.94702 23.455C8.31829 26.001 12.4775 26.2662 15.1875 24.0383C17.9541 21.7576 19.5161 18.3984 19.8172 14.049L19.8737 13.1826H43.5301C44.0757 13.1826 44.5275 13.607 44.5275 14.1197C44.5275 14.6324 44.0757 15.0567 43.5301 15.0567H21.7368C21.2474 19.4945 19.4971 22.9953 16.5049 25.4529C14.8864 26.7435 12.8915 27.3977 10.8966 27.3977Z" fill="white"></path><path d="M43.5489 68.151H34.7035C34.1578 68.151 33.7061 67.7267 33.7061 67.2139C33.7061 66.7013 34.1578 66.2769 34.7035 66.2769H43.5489C44.0947 66.2769 44.5463 66.7013 44.5463 67.2139C44.5275 67.7267 44.0947 68.151 43.5489 68.151Z" fill="white"></path><path d="M37.9594 29.1482C37.4135 29.1482 36.9619 28.7239 36.9619 28.2111V14.1021C36.9619 13.5894 37.4135 13.165 37.9594 13.165C38.5052 13.165 38.9568 13.5894 38.9568 14.1021V28.2287C38.9568 28.7415 38.5052 29.1482 37.9594 29.1482Z" fill="white"></path><path d="M76.2009 6.32227H10.9907C10.1626 6.32227 9.50391 6.94109 9.50391 7.71902C9.50391 8.49696 10.1626 9.11577 10.9907 9.11577H76.2009C77.029 9.11577 77.6877 8.49696 77.6877 7.71902C77.6877 6.94109 77.029 6.32227 76.2009 6.32227Z" fill="white"></path><path d="M57.6447 71.0859H29.4904C28.6623 71.0859 28.0037 71.7047 28.0037 72.4827C28.0037 73.2607 28.6623 73.8795 29.4904 73.8795H57.6447C58.4728 73.8795 59.1315 73.2607 59.1315 72.4827C59.1315 71.7225 58.4728 71.0859 57.6447 71.0859Z" fill="white"></path><path d="M10.9907 54.8201C4.93077 54.8201 0 50.1877 0 44.4947V43.5576H21.9626V44.4947C21.9626 50.1877 17.0507 54.8201 10.9907 54.8201ZM2.03253 45.4317C2.52184 49.6573 6.36106 52.9636 10.9907 52.9636C15.6204 52.9636 19.4408 49.6573 19.9489 45.4317H2.03253Z" fill="white"></path><path d="M43.5864 67.8681C42.7584 67.8681 42.0996 67.2493 42.0996 66.4713V14.8445C42.0996 14.0666 42.7584 13.4478 43.5864 13.4478C44.4145 13.4478 45.0732 14.0666 45.0732 14.8445V66.4713C45.0732 67.2493 44.4145 67.8681 43.5864 67.8681Z" fill="white"></path><path d="M43.5863 90.6935L9.50391 75.0109V59.576C9.50391 58.798 10.1626 58.1792 10.9907 58.1792C11.8187 58.1792 12.4774 58.798 12.4774 59.576V73.2783L43.6053 87.5995L74.7331 73.2783V59.576C74.7331 58.798 75.3917 58.1792 76.2199 58.1792C77.0478 58.1792 77.7066 58.798 77.7066 59.576V75.0109L43.5863 90.6935Z" fill="white"></path></g><defs><clipPath id="clip0_254_1327"><rect width="198" height="97" fill="white"></rect></clipPath></defs></svg> 