<?xml version="1.0" encoding="UTF-8"?> <svg xmlns="http://www.w3.org/2000/svg" width="48" height="48" viewBox="0 0 48 48" fill="none"><path fill-rule="evenodd" clip-rule="evenodd" d="M37.8479 9.86C34.0729 6.083 29.0519 4.002 23.7089 4C12.6929 4 3.72691 12.962 3.72191 23.979C3.72091 27.346 4.57091 30.664 6.18291 33.601L3.59791 43.04C3.50391 43.385 3.59991 43.753 3.85191 44.007C4.04191 44.199 4.29891 44.304 4.56291 44.304C4.64791 44.304 4.73291 44.293 4.81691 44.271L14.5039 41.731C17.3319 43.199 20.5019 43.974 23.7009 43.975C34.7249 43.975 43.6909 35.012 43.6959 23.995C43.6979 18.656 41.6209 13.636 37.8479 9.86Z" fill="url(#paint0_linear_150_269)"></path><path fill-rule="evenodd" clip-rule="evenodd" d="M34.871 12.8321C31.891 9.85005 27.93 8.20705 23.714 8.20605C15.01 8.20605 7.931 15.2821 7.927 23.9801C7.926 26.9611 8.76 29.8631 10.34 32.3761L10.716 32.9731L9.121 38.7941L15.094 37.2281L15.671 37.5701C18.093 39.0081 20.871 39.7681 23.703 39.7691H23.709C32.407 39.7691 39.486 32.6921 39.489 23.9931C39.49 19.7781 37.851 15.8141 34.871 12.8321Z" fill="url(#paint1_linear_150_269)"></path><path opacity="0.05" fill-rule="evenodd" clip-rule="evenodd" d="M28.8931 33.879C27.8981 33.879 26.5391 33.625 23.8061 32.548C20.7461 31.34 17.7401 28.718 15.3421 25.164L15.2651 25.051C14.6231 24.194 13.1331 21.944 13.1331 19.551C13.1331 16.971 14.4211 15.598 14.9711 15.011L15.0561 14.92C15.8151 14.089 16.7091 14 17.0581 14C17.4271 14.004 17.7401 14 18.0111 14.012C18.6651 14.038 19.4101 14.227 19.9471 15.421C20.1971 15.979 20.6231 17.026 20.9561 17.847C21.1691 18.374 21.3421 18.802 21.3951 18.916C21.6891 19.502 21.7031 20.083 21.4311 20.63L21.3661 20.763C21.2381 21.025 21.1051 21.296 20.8221 21.626L20.5871 21.908C20.4251 22.105 20.2621 22.301 20.1171 22.453C20.5061 23.094 21.3231 24.309 22.4481 25.313C23.8421 26.554 25.0361 27.073 25.6771 27.352C25.8041 27.407 25.9101 27.454 25.9941 27.494C26.3991 27.024 27.0661 26.223 27.2961 25.88C28.0661 24.724 29.1731 25.125 29.5361 25.258C30.1051 25.464 32.8591 26.834 32.8861 26.847L33.1411 26.972C33.5601 27.175 33.9541 27.366 34.2031 27.78C34.5981 28.441 34.3791 29.853 34.0101 30.885C33.4761 32.388 31.1821 33.69 29.9561 33.8L29.7301 33.824C29.4651 33.855 29.1961 33.879 28.8931 33.879ZM17.2161 16C17.0761 16 16.8311 15.942 16.5301 16.27L16.4291 16.379C15.9761 16.862 15.1321 17.762 15.1321 19.551C15.1321 21.394 16.4581 23.308 16.8641 23.851C16.8911 23.887 16.9351 23.952 16.9991 24.045C19.1741 27.268 21.8521 29.627 24.5401 30.687C27.9241 32.022 28.7931 31.921 29.4961 31.838L29.7741 31.808C30.3831 31.753 31.8961 30.857 32.1251 30.214C32.3341 29.629 32.4011 29.127 32.4121 28.84C32.3681 28.819 32.3201 28.797 32.2691 28.773L31.9861 28.634C31.3491 28.314 29.2071 27.268 28.8551 27.139C28.4131 27.747 27.5931 28.704 27.3761 28.953C26.9691 29.42 26.2491 29.862 25.1471 29.307C25.0811 29.274 24.9911 29.236 24.8791 29.187C24.1881 28.886 22.7491 28.261 21.1161 26.807C19.6471 25.496 18.6421 23.903 18.2781 23.278C17.8331 22.517 17.9561 21.783 18.6441 21.098C18.7641 20.978 18.9011 20.807 19.0411 20.638L19.3031 20.324C19.4211 20.187 19.4641 20.098 19.5701 19.883L19.6051 19.812C19.5131 19.608 19.3271 19.153 19.1031 18.599C18.7801 17.802 18.3671 16.784 18.1241 16.242C18.0591 16.098 18.0101 16.027 17.9861 15.997C17.9911 16.012 17.9571 16.013 17.9281 16.011C17.7061 16 17.4631 16 17.2161 16Z" fill="black"></path><path opacity="0.07" fill-rule="evenodd" clip-rule="evenodd" d="M28.8891 33.384C28.0431 33.384 26.7341 33.164 23.9901 32.082C21.0231 30.912 18.0991 28.355 15.7571 24.884L15.6701 24.756C15.0541 23.934 13.6331 21.794 13.6331 19.55C13.6331 17.168 14.8261 15.896 15.3361 15.352L15.4251 15.256C16.0501 14.573 16.7761 14.5 17.0591 14.5C17.4361 14.503 17.7261 14.5 17.9901 14.512C18.4821 14.532 19.0471 14.636 19.4921 15.626C19.7411 16.18 20.1631 17.22 20.4931 18.035C20.7181 18.59 20.8981 19.037 20.9451 19.132C21.0271 19.297 21.2831 19.806 20.9841 20.407L20.9171 20.543C20.7921 20.798 20.6841 21.019 20.4421 21.301L20.2001 21.59C20.0271 21.8 19.8541 22.009 19.7041 22.159C19.4881 22.374 19.4881 22.374 19.5741 22.521C19.9021 23.084 20.8061 24.519 22.1151 25.686C23.5681 26.981 24.8111 27.52 25.4781 27.81C25.6221 27.872 25.7371 27.923 25.8221 27.966C26.1151 28.112 26.1451 28.082 26.2491 27.964C26.5371 27.636 27.4171 26.6 27.7121 26.157C28.2661 25.327 28.9811 25.587 29.3661 25.726C29.8721 25.91 32.4051 27.163 32.6621 27.292L32.9241 27.42C33.3041 27.604 33.6041 27.749 33.7761 28.034C34.0301 28.46 33.9251 29.637 33.5411 30.715C33.0531 32.086 30.8951 33.212 29.9131 33.3L29.6741 33.326C29.4411 33.354 29.1961 33.384 28.8891 33.384ZM17.2011 15.5C17.1751 15.5 17.1491 15.5 17.1231 15.5C16.9401 15.5 16.5281 15.531 16.1611 15.932L16.0641 16.036C15.5991 16.532 14.6321 17.564 14.6321 19.55C14.6321 21.493 15.9131 23.414 16.4641 24.15C16.4891 24.183 16.5281 24.24 16.5851 24.324C18.8161 27.63 21.5761 30.054 24.3571 31.152C27.8621 32.534 28.8021 32.423 29.5541 32.335L29.8211 32.306C30.5141 32.244 32.2721 31.293 32.5971 30.381C32.9301 29.449 32.9441 28.671 32.8931 28.504C32.9001 28.51 32.6611 28.406 32.4881 28.322L32.2121 28.186C31.5891 27.873 29.4061 26.805 29.0241 26.666C28.6641 26.536 28.6631 26.533 28.5441 26.712C28.1951 27.233 27.2241 28.369 27.0021 28.622C26.3601 29.357 25.6181 28.981 25.3731 28.858C25.3011 28.822 25.2021 28.78 25.0801 28.727C24.4121 28.436 23.0231 27.832 21.4501 26.431C20.0341 25.169 19.0631 23.628 18.7111 23.024C18.2351 22.21 18.7701 21.677 18.9981 21.45C19.1281 21.32 19.2781 21.137 19.4291 20.953L19.6841 20.647C19.8431 20.461 19.9101 20.325 20.0201 20.1L20.0901 19.957C20.1391 19.859 20.1481 19.768 20.0501 19.574C19.9981 19.47 19.8051 18.996 19.5671 18.407C19.2411 17.604 18.8261 16.578 18.5801 16.033C18.3511 15.524 18.2171 15.518 17.9481 15.508C17.7171 15.5 17.4611 15.5 17.2011 15.5Z" fill="black"></path><path fill-rule="evenodd" clip-rule="evenodd" d="M19.0351 15.831C18.6801 15.041 18.3061 15.025 17.9671 15.011C17.6901 14.999 17.3741 15 17.0581 15C16.7421 15 16.2281 15.119 15.7931 15.594C15.3581 16.069 14.1321 17.216 14.1321 19.55C14.1321 21.884 15.8321 24.14 16.0691 24.456C16.3061 24.772 19.3511 29.715 24.1731 31.617C28.1801 33.197 28.9961 32.883 29.8661 32.804C30.7361 32.725 32.6731 31.657 33.0681 30.549C33.4631 29.441 33.4631 28.492 33.3451 28.294C33.2261 28.096 32.9101 27.978 32.4361 27.74C31.9621 27.502 29.6291 26.355 29.1941 26.197C28.7591 26.039 28.4431 25.96 28.1261 26.435C27.8101 26.909 26.9011 27.978 26.6241 28.294C26.3471 28.611 26.0701 28.651 25.5961 28.413C25.1221 28.175 23.5941 27.675 21.7811 26.059C20.3711 24.802 19.4191 23.249 19.1421 22.774C18.8651 22.3 19.1121 22.043 19.3501 21.806C19.5631 21.593 19.8241 21.252 20.0621 20.975C20.2991 20.698 20.3781 20.5 20.5361 20.184C20.6941 19.867 20.6151 19.59 20.4961 19.353C20.3791 19.115 19.4571 16.769 19.0351 15.831Z" fill="white"></path><defs><linearGradient id="paint0_linear_150_269" x1="6.71791" y1="12.801" x2="35.0969" y2="41.18" gradientUnits="userSpaceOnUse"><stop stop-color="#DFE9F2"></stop><stop offset="0.391" stop-color="#D6E0E9"></stop><stop offset="1" stop-color="#BFC8D1"></stop></linearGradient><linearGradient id="paint1_linear_150_269" x1="15.389" y1="10.7261" x2="28.863" y2="39.2651" gradientUnits="userSpaceOnUse"><stop stop-color="#2ECC75"></stop><stop offset="1" stop-color="#0B964A"></stop></linearGradient></defs></svg> 